# xmcd CD database file
#
# Track frame offsets:
#	150
#	8782
#	20002
#	30587
#	42372
#	54465
#	65255
#	72037
#	80770
#	91185
#	104910
#	113547
#	123925
#	135257
#	145192
#
# Disc length: 2073 seconds
#
# Revision: 3
# Processed by: cddbd v1.4PL0 Copyright (c) Steve Scherf et al.
# Submitted via: Gronk 1.4
#
DISCID=c208170f,ce08170f
DTITLE=Waylon Jennings - The Big Country
DYEAR=1900
DGENRE=country
TTITLE0=Abilene
TTITLE1=Big Mamou
TTITLE2=Burning Memories
TTITLE3=Crying
TTITLE4=Don't Think Twice
TTITLE5=Dream Baby
TTITLE6=It's So Easy
TTITLE7=Jole Blon
TTITLE8=Lorena
TTITLE9=Willy The Wandering Gypsy
TTITLE10=Love's Gonna Live Here Again
TTITLE11=Money (That's What I Want)
TTITLE12=Sally Was A Good Old Girl
TTITLE13=When Sin Stops
TTITLE14=White Lightnin'
EXTD=Verzerrter Klang
EXTT0=
EXTT1=
EXTT2=
EXTT3=
EXTT4=
EXTT5=
EXTT6=
EXTT7=
EXTT8=
EXTT9=
EXTT10=
EXTT11=
EXTT12=
EXTT13=
EXTT14=
PLAYORDER=
